<svg width="24" height="24" xmlns="http://www.w3.org/2000/svg" xmlns:svg="http://www.w3.org/2000/svg">
  <path fill="white" d="m19.5,10c-2.483,0 -4.5,2.015 -4.5,4.5s2.017,4.5 4.5,4.5s4.5,-2.015 4.5,-4.5s-2.017,-4.5 -4.5,-4.5zm3,5.5l-6,0l0,-2l6,0l0,2zm-7.027,4.093c-1.108,1.086 -2.275,2.219 -3.473,3.407c-6.43,-6.381 -12,-11.147 -12,-15.808c0,-6.769 8.852,-8.346 12,-2.944c3.125,-5.362 12,-3.848 12,2.944c0,0.746 -0.156,1.496 -0.423,2.253c-1.116,-0.902 -2.534,-1.445 -4.077,-1.445c-3.584,0 -6.5,2.916 -6.4,6.5c0,2.063 0.97,3.901 2.473,5.093l-0.1,0z" />
</svg>